# xmcd CD database file
#
# Track frame offsets:
#	150
#	29622
#	61296
#	82073
#	105589
#	124089
#	149442
#	170274
#	204187
#	248821
#	266683
#	286175
#	302438
#
# Disc length: 4292 seconds
#
# Revision: 0
# Processed by: cddbd v1.5.1PL2 Copyright (c) Steve Scherf et al.
# Submitted via: CDex 1.51
#
DISCID=b310c20d
DTITLE=Various Artist - World Of Music
DYEAR=2000
DGENRE=Salsa
TTITLE0=Salsa Pilon - Cubanismo
TTITLE1=Cayo Coco - Dave Pike
TTITLE2=La Vida Es Un Carnaval - Celia Cruz
TTITLE3=Quien Eres Tu - Fransisco Aguabella
TTITLE4=Yo Lo Diga - Hemisphere
TTITLE5=Rumba A La Patato - Marlon Simon
TTITLE6=Oye Como Va - Tito Puente
TTITLE7=Runsky - Arturo Sandoval
TTITLE8=Spain - Chick Corea
TTITLE9=Aunque Mami No Quiera - Charlie Palmieri
TTITLE10=Chan Chan - Buena Vista Social Club
TTITLE11=Looking For Your Love Bus - Carmen Jimenez
TTITLE12=Te Vengo Buscar - Ebro Steelo
EXTD=YEAR: 2000
EXTT0=
EXTT1=
EXTT2=
EXTT3=
EXTT4=
EXTT5=
EXTT6=
EXTT7=
EXTT8=
EXTT9=
EXTT10=
EXTT11=
EXTT12=
PLAYORDER=
